<?xml version="1.0" encoding="iso-8859-1"?>
<!-- Generator: Adobe Illustrator 19.0.0, SVG Export Plug-In . SVG Version: 6.00 Build 0)  -->
<svg version="1.1" id="Capa_1" xmlns="http://www.w3.org/2000/svg" xmlns:xlink="http://www.w3.org/1999/xlink" x="0px" y="0px"
	 viewBox="0 0 512 512" style="enable-background:new 0 0 512 512;" xml:space="preserve">
<g>
	<g>
		<g>
			<path d="M175.657,294.907v19.961c0,36.881,25.889,68.938,59.883,78.18v42.601h39.922v-42.528
				c13.601-3.607,26.143-10.884,36.466-21.367c15.101-15.336,23.417-35.419,23.417-56.548c0-20.16-8.455-37.841-25.132-52.552
				c-12.907-11.387-29.276-19.918-45.106-28.17l-0.38-0.199c-27.775-14.478-40.166-24.63-40.166-46.523
				c0-16.305,13.88-29.571,30.94-29.571s30.94,13.432,30.94,29.942v19.961h39.922v-19.961c0-31.69-21.519-58.502-50.901-67.023
				V76.351H235.54v44.745c-29.382,8.475-50.901,35.145-50.901,66.667c0,49.798,38.583,69.909,61.636,81.924l0.38,0.199
				c30.236,15.76,48.768,26.381,48.768,45.321c0,22.007-18.282,40.599-39.922,40.599c-21.267,0-39.922-19.13-39.922-40.937v-19.961
				H175.657z"/>
			<path d="M256.499,471.579c-77.7,0-147.343-40.575-185.659-105.793h68.887v-39.922H0v139.727h39.922v-73.917
				c18.194,29.045,42.134,54.223,70.731,74.136c42.926,29.891,93.36,45.691,145.846,45.691c68.208,0,132.207-26.592,180.209-74.876
				c47.908-48.192,74.294-112.339,74.294-180.625H471.08C471.08,374.871,374.819,471.579,256.499,471.579z"/>
			<path d="M472.078,46.409v73.917c-18.195-29.045-42.134-54.222-70.731-74.135c-42.926-29.892-93.36-45.692-145.846-45.692
				c-68.247,0-132.408,26.577-180.666,74.834C26.577,123.592,0,187.753,0,256h39.922c0-118.871,96.708-215.579,215.579-215.579
				c77.701,0,147.343,40.574,185.659,105.793h-68.887v39.922H512V46.409H472.078z"/>
		</g>
	</g>
</g>
<g>
</g>
<g>
</g>
<g>
</g>
<g>
</g>
<g>
</g>
<g>
</g>
<g>
</g>
<g>
</g>
<g>
</g>
<g>
</g>
<g>
</g>
<g>
</g>
<g>
</g>
<g>
</g>
<g>
</g>
</svg>
