<svg width="149" height="52" viewBox="0 0 149 52" fill="none" xmlns="http://www.w3.org/2000/svg">
<path d="M18.5125 19.119L16.8651 15.3861C16.9363 15.0036 17.8112 15.385 18.2398 15.6235L22.801 6.47575C26.716 1.97775 35.6895 7.47737 39.6869 10.7894L40.7005 8.75663C42.6363 8.46767 43.6595 9.70946 43.9291 10.3665L35.4325 27.257C34.5017 28.5249 31.3606 28.5861 29.9064 28.4583C26.39 27.7749 19.154 26.3966 18.3412 26.3497C17.5285 26.3028 16.8677 26.8094 16.639 27.0686L10.7658 38.6977C10.6467 39.0564 10.9559 39.4644 11.1254 39.6236C14.5135 41.3627 21.4212 44.8767 21.9472 45.0195C22.4732 45.1624 22.7637 44.8792 22.8432 44.7198L28.0305 34.3164L26.8945 33.75C26.8226 33.535 26.9837 33.3217 27.0732 33.2419L31.0462 32.4607C31.5952 33.5556 32.6932 35.8052 32.6934 36.0442C32.6937 36.2833 32.435 36.4628 32.3055 36.5227L31.1098 35.9265L25.207 47.7647C24.3002 49.1043 22.6988 49.2017 22.0115 49.0829C17.9361 47.2748 9.44437 43.3542 8.08058 42.1367C6.71679 40.9192 6.79244 39.0806 7.00074 38.3135L14.1856 24.0537C14.9974 23.264 16.6542 22.8459 17.3811 22.7355L31.1873 24.991C32.1914 25.1333 32.7406 24.6705 32.8897 24.4214L38.0473 14.0778C37.9508 13.3131 37.4964 12.8868 37.307 12.7177C33.1802 9.46552 28.9887 8.42071 27.9127 8.03348C27.0519 7.7237 26.1494 8.39429 25.8509 8.59381L21.4685 17.3828L22.5447 17.9194C22.6404 17.9671 22.4256 18.2582 22.3062 18.3978L18.5125 19.119Z" fill="white"/>
<rect x="14.3521" y="38.6736" width="8.418" height="1.06895" rx="0.534476" transform="rotate(26.5017 14.3521 38.6736)" fill="white"/>
<circle cx="32.1295" cy="11.405" r="0.534476" transform="rotate(26.5017 32.1295 11.405)" fill="white"/>
<circle cx="31.2946" cy="13.0792" r="0.534476" transform="rotate(26.5017 31.2946 13.0792)" fill="white"/>
<circle cx="30.4599" cy="14.7532" r="0.534476" transform="rotate(26.5017 30.4599 14.7532)" fill="white"/>
<circle cx="33.0883" cy="13.9735" r="0.534476" transform="rotate(26.5017 33.0883 13.9735)" fill="white" fill-opacity="0.35"/>
<circle cx="29.6206" cy="12.2444" r="0.534476" transform="rotate(26.5017 29.6206 12.2444)" fill="white"/>
<path d="M54.8243 44.3665H57.4403C57.9523 44.3665 58.3123 44.2625 58.5203 44.0545C58.7443 43.8305 58.8563 43.4625 58.8563 42.9505V35.6305C58.8563 35.1185 58.7443 34.7585 58.5203 34.5505C58.3123 34.3265 57.9523 34.2145 57.4403 34.2145H54.8243C54.6483 34.2145 54.5603 34.3025 54.5603 34.4785V44.1025C54.5603 44.2785 54.6483 44.3665 54.8243 44.3665ZM51.5123 46.5025V32.0785C51.5123 31.7425 51.6803 31.5745 52.0163 31.5745H57.9443C59.1923 31.5745 60.1603 31.9185 60.8483 32.6065C61.5523 33.2785 61.9043 34.2385 61.9043 35.4865V43.0945C61.9043 44.3425 61.5523 45.3105 60.8483 45.9985C60.1603 46.6705 59.1923 47.0065 57.9443 47.0065H52.0163C51.6803 47.0065 51.5123 46.8385 51.5123 46.5025ZM75.0259 31.5745H78.5779C78.9139 31.5745 79.0819 31.7425 79.0819 32.0785V46.5025C79.0819 46.8385 78.9139 47.0065 78.5779 47.0065H76.6099C76.2739 47.0065 76.1059 46.8385 76.1059 46.5025V35.1265H76.0099L73.5619 43.1665C73.4659 43.4865 73.2659 43.6465 72.9619 43.6465H70.9459C70.6419 43.6465 70.4419 43.4865 70.3459 43.1665L67.8499 35.1025H67.7539V46.5025C67.7539 46.6945 67.7219 46.8305 67.6579 46.9105C67.5939 46.9745 67.4579 47.0065 67.2499 47.0065H65.2819C64.9459 47.0065 64.7779 46.8385 64.7779 46.5025V32.0785C64.7779 31.7425 64.9459 31.5745 65.2819 31.5745H68.8579C69.0819 31.5745 69.2339 31.6865 69.3139 31.9105L71.8579 40.3825H72.0019L74.5699 31.9105C74.6179 31.6865 74.7699 31.5745 75.0259 31.5745ZM81.808 43.0705V42.5905C81.808 42.2545 81.976 42.0865 82.312 42.0865H84.352C84.688 42.0865 84.856 42.2545 84.856 42.5905V42.7825C84.856 43.3905 84.976 43.8065 85.216 44.0305C85.456 44.2545 85.896 44.3665 86.536 44.3665H87.664C88.288 44.3665 88.72 44.2465 88.96 44.0065C89.216 43.7665 89.344 43.3185 89.344 42.6625V42.3745C89.344 41.9105 89.152 41.5585 88.768 41.3185C88.4 41.0625 87.936 40.9105 87.376 40.8625C86.816 40.8145 86.208 40.7265 85.552 40.5985C84.912 40.4545 84.312 40.2785 83.752 40.0705C83.192 39.8465 82.72 39.4225 82.336 38.7985C81.968 38.1585 81.784 37.3425 81.784 36.3505V35.5105C81.784 34.2625 82.136 33.2945 82.84 32.6065C83.544 31.9185 84.52 31.5745 85.768 31.5745H88.168C89.432 31.5745 90.416 31.9185 91.12 32.6065C91.824 33.2945 92.176 34.2625 92.176 35.5105V35.9665C92.176 36.3025 92.008 36.4705 91.672 36.4705H89.632C89.296 36.4705 89.128 36.3025 89.128 35.9665V35.8225C89.128 35.1985 89.008 34.7745 88.768 34.5505C88.528 34.3265 88.088 34.2145 87.448 34.2145H86.512C85.856 34.2145 85.408 34.3425 85.168 34.5985C84.944 34.8385 84.832 35.3185 84.832 36.0385V36.4945C84.832 37.2465 85.488 37.6785 86.8 37.7905C88.16 37.9025 89.368 38.1745 90.424 38.6065C90.984 38.8465 91.448 39.2785 91.816 39.9025C92.2 40.5105 92.392 41.2945 92.392 42.2545V43.0705C92.392 44.3185 92.04 45.2865 91.336 45.9745C90.632 46.6625 89.656 47.0065 88.408 47.0065H85.792C84.544 47.0065 83.568 46.6625 82.864 45.9745C82.16 45.2865 81.808 44.3185 81.808 43.0705Z" fill="white"/>
<path d="M100.189 44.3765H102.877C103.307 44.3765 103.633 44.2598 103.857 44.0265C104.091 43.7838 104.207 43.4385 104.207 42.9905V38.0205C104.207 37.5725 104.091 37.2318 103.857 36.9985C103.633 36.7558 103.307 36.6345 102.877 36.6345H100.189C100.096 36.6345 100.049 36.6765 100.049 36.7605V44.2505C100.049 44.3345 100.096 44.3765 100.189 44.3765ZM99.3492 44.8385V36.1725C99.3492 36.0605 99.3958 36.0045 99.4892 36.0045H102.947C103.554 36.0045 104.03 36.1818 104.375 36.5365C104.73 36.8911 104.907 37.3765 104.907 37.9925V43.0185C104.907 43.6345 104.73 44.1198 104.375 44.4745C104.03 44.8291 103.554 45.0065 102.947 45.0065H99.4892C99.3958 45.0065 99.3492 44.9505 99.3492 44.8385ZM107.072 36.6905V35.3465C107.072 35.2438 107.119 35.1925 107.212 35.1925H107.632C107.725 35.1925 107.772 35.2438 107.772 35.3465V36.6905C107.772 36.8025 107.725 36.8585 107.632 36.8585H107.212C107.119 36.8585 107.072 36.8025 107.072 36.6905ZM107.072 44.8385V38.0345C107.072 37.9225 107.119 37.8665 107.212 37.8665H107.618C107.721 37.8665 107.772 37.9225 107.772 38.0345V44.8385C107.772 44.9505 107.725 45.0065 107.632 45.0065H107.212C107.119 45.0065 107.072 44.9505 107.072 44.8385ZM109.284 37.8665H109.718C109.811 37.8665 109.872 37.9225 109.9 38.0345L111.776 44.2225H111.832L113.694 38.0345C113.731 37.9225 113.792 37.8665 113.876 37.8665H114.324C114.426 37.8665 114.459 37.9225 114.422 38.0345L112.308 44.8385C112.28 44.9505 112.214 45.0065 112.112 45.0065H111.496C111.393 45.0065 111.323 44.9505 111.286 44.8385L109.172 38.0345C109.144 37.9225 109.181 37.8665 109.284 37.8665ZM115.836 36.6905V35.3465C115.836 35.2438 115.882 35.1925 115.976 35.1925H116.396C116.489 35.1925 116.536 35.2438 116.536 35.3465V36.6905C116.536 36.8025 116.489 36.8585 116.396 36.8585H115.976C115.882 36.8585 115.836 36.8025 115.836 36.6905ZM115.836 44.8385V38.0345C115.836 37.9225 115.882 37.8665 115.976 37.8665H116.382C116.484 37.8665 116.536 37.9225 116.536 38.0345V44.8385C116.536 44.9505 116.489 45.0065 116.396 45.0065H115.976C115.882 45.0065 115.836 44.9505 115.836 44.8385ZM121.015 45.0065H118.579C118.477 45.0065 118.425 44.9551 118.425 44.8525V44.5305C118.425 44.4371 118.477 44.3905 118.579 44.3905H120.945C121.785 44.3905 122.205 44.0638 122.205 43.4105V43.0745C122.205 42.4678 121.944 42.0711 121.421 41.8845L119.671 41.2125C119.195 41.0258 118.855 40.8065 118.649 40.5545C118.453 40.3025 118.355 39.9525 118.355 39.5045C118.355 38.4125 118.957 37.8665 120.161 37.8665H122.429C122.532 37.8665 122.583 37.9178 122.583 38.0205V38.3425C122.583 38.4358 122.532 38.4825 122.429 38.4825H120.231C119.849 38.4825 119.559 38.5665 119.363 38.7345C119.177 38.9025 119.083 39.0985 119.083 39.3225V39.6445C119.083 39.9058 119.153 40.1111 119.293 40.2605C119.443 40.4098 119.667 40.5358 119.965 40.6385L121.715 41.3385C122.201 41.4971 122.523 41.7351 122.681 42.0525C122.849 42.3605 122.933 42.7945 122.933 43.3545C122.933 43.9145 122.775 44.3298 122.457 44.6005C122.149 44.8711 121.669 45.0065 121.015 45.0065ZM124.805 36.6905V35.3465C124.805 35.2438 124.851 35.1925 124.945 35.1925H125.365C125.458 35.1925 125.505 35.2438 125.505 35.3465V36.6905C125.505 36.8025 125.458 36.8585 125.365 36.8585H124.945C124.851 36.8585 124.805 36.8025 124.805 36.6905ZM124.805 44.8385V38.0345C124.805 37.9225 124.851 37.8665 124.945 37.8665H125.351C125.453 37.8665 125.505 37.9225 125.505 38.0345V44.8385C125.505 44.9505 125.458 45.0065 125.365 45.0065H124.945C124.851 45.0065 124.805 44.9505 124.805 44.8385ZM130.698 45.0065H129.494C128.887 45.0065 128.407 44.8291 128.052 44.4745C127.707 44.1198 127.534 43.6345 127.534 43.0185V39.8545C127.534 39.2385 127.707 38.7531 128.052 38.3985C128.407 38.0438 128.887 37.8665 129.494 37.8665H130.698C131.305 37.8665 131.785 38.0438 132.14 38.3985C132.495 38.7531 132.672 39.2385 132.672 39.8545V43.0185C132.672 43.6345 132.495 44.1198 132.14 44.4745C131.785 44.8291 131.305 45.0065 130.698 45.0065ZM129.55 44.3765H130.642C131.071 44.3765 131.398 44.2598 131.622 44.0265C131.855 43.7838 131.972 43.4431 131.972 43.0045V39.8685C131.972 39.4298 131.855 39.0938 131.622 38.8605C131.398 38.6178 131.071 38.4965 130.642 38.4965H129.55C129.121 38.4965 128.794 38.6178 128.57 38.8605C128.346 39.0938 128.234 39.4298 128.234 39.8685V43.0045C128.234 43.4431 128.346 43.7838 128.57 44.0265C128.794 44.2598 129.121 44.3765 129.55 44.3765ZM135.165 45.0065H134.759C134.666 45.0065 134.619 44.9505 134.619 44.8385V38.0345C134.619 37.9225 134.666 37.8665 134.759 37.8665H135.165C135.268 37.8665 135.319 37.9225 135.319 38.0345V38.5945H135.375C135.637 38.1091 136.122 37.8665 136.831 37.8665H137.755C138.353 37.8665 138.824 38.0438 139.169 38.3985C139.515 38.7531 139.687 39.2385 139.687 39.8545V44.8385C139.687 44.9505 139.641 45.0065 139.547 45.0065H139.141C139.039 45.0065 138.987 44.9505 138.987 44.8385V39.8825C138.987 39.4438 138.875 39.1031 138.651 38.8605C138.427 38.6178 138.101 38.4965 137.671 38.4965H136.761C136.313 38.4965 135.959 38.6178 135.697 38.8605C135.445 39.0938 135.319 39.4298 135.319 39.8685V44.8385C135.319 44.9505 135.268 45.0065 135.165 45.0065ZM144.901 37.6985V37.3905C144.901 37.2691 144.957 37.1711 145.069 37.0965L146.833 36.1025C146.927 36.0371 147.025 36.0045 147.127 36.0045H147.491C147.594 36.0045 147.645 36.0605 147.645 36.1725V44.8385C147.645 44.9505 147.594 45.0065 147.491 45.0065H147.085C146.992 45.0065 146.945 44.9505 146.945 44.8385V36.7605L145.139 37.7825C144.981 37.8851 144.901 37.8571 144.901 37.6985Z" fill="white"/>
</svg>
